<?xml version="1.0" encoding="UTF-8" standalone="no"?>
<!DOCTYPE svg PUBLIC "-//W3C//DTD SVG 1.1//EN"
 "http://www.w3.org/Graphics/SVG/1.1/DTD/svg11.dtd">
<!-- Generated by graphviz version 2.43.0 (0)
 -->
<!-- Title: G Pages: 1 -->
<svg width="1428pt" height="210pt"
 viewBox="0.00 0.00 1427.50 209.74" xmlns="http://www.w3.org/2000/svg" xmlns:xlink="http://www.w3.org/1999/xlink">
<g id="graph0" class="graph" transform="scale(1 1) rotate(0) translate(4 205.74)">
<title>G</title>
<polygon fill="white" stroke="transparent" points="-4,4 -4,-205.74 1423.5,-205.74 1423.5,4 -4,4"/>
<!-- /workspaces/df&#45;data&#45;ingestion/data/in/customers_20241226.csv -->
<g id="node1" class="node">
<title>/workspaces/df&#45;data&#45;ingestion/data/in/customers_20241226.csv</title>
<polygon fill="snow" stroke="black" points="456,-201.74 0,-201.74 0,-163.74 462,-163.74 462,-195.74 456,-201.74"/>
<polyline fill="none" stroke="black" points="456,-201.74 456,-195.74 "/>
<polyline fill="none" stroke="black" points="462,-195.74 456,-195.74 "/>
<text text-anchor="middle" x="231" y="-186.54" font-family="Microsoft JhengHei" font-size="14.00">/workspaces/df&#45;data&#45;ingestion/data/in/customers_20241226.csv</text>
<text text-anchor="middle" x="231" y="-171.54" font-family="Microsoft JhengHei" font-size="14.00">feed</text>
</g>
<!-- workflow_3 -->
<g id="node2" class="node">
<title>workflow_3</title>
<ellipse fill="none" stroke="black" stroke-width="2" cx="231" cy="-100.87" rx="67.35" ry="26.74"/>
<text text-anchor="middle" x="231" y="-104.67" font-family="Microsoft JhengHei" font-size="14.00">workflow_3</text>
<text text-anchor="middle" x="231" y="-89.67" font-family="Microsoft JhengHei" font-size="14.00">process</text>
</g>
<!-- /workspaces/df&#45;data&#45;ingestion/data/in/customers_20241226.csv&#45;&gt;workflow_3 -->
<g id="edge1" class="edge">
<title>/workspaces/df&#45;data&#45;ingestion/data/in/customers_20241226.csv&#45;&gt;workflow_3</title>
<path fill="none" stroke="black" d="M231,-163.62C231,-156.01 231,-146.88 231,-138"/>
<polygon fill="black" stroke="black" points="234.5,-137.8 231,-127.8 227.5,-137.8 234.5,-137.8"/>
</g>
<!-- dl_asset_mgmt.tcustomer -->
<g id="node3" class="node">
<title>dl_asset_mgmt.tcustomer</title>
<polygon fill="lightseagreen" stroke="black" points="329,-38 133,-38 133,0 329,0 329,-38"/>
<text text-anchor="middle" x="231" y="-22.8" font-family="Microsoft JhengHei" font-size="14.00">dl_asset_mgmt.tcustomer</text>
<text text-anchor="middle" x="231" y="-7.8" font-family="Microsoft JhengHei" font-size="14.00">dataset</text>
</g>
<!-- workflow_3&#45;&gt;dl_asset_mgmt.tcustomer -->
<g id="edge2" class="edge">
<title>workflow_3&#45;&gt;dl_asset_mgmt.tcustomer</title>
<path fill="none" stroke="black" d="M231,-73.72C231,-65.53 231,-56.46 231,-48.14"/>
<polygon fill="black" stroke="black" points="234.5,-48.12 231,-38.12 227.5,-48.12 234.5,-48.12"/>
</g>
<!-- /workspaces/df&#45;data&#45;ingestion/data/in/assets_20241226.csv -->
<g id="node4" class="node">
<title>/workspaces/df&#45;data&#45;ingestion/data/in/assets_20241226.csv</title>
<polygon fill="snow" stroke="black" points="908,-201.74 480,-201.74 480,-163.74 914,-163.74 914,-195.74 908,-201.74"/>
<polyline fill="none" stroke="black" points="908,-201.74 908,-195.74 "/>
<polyline fill="none" stroke="black" points="914,-195.74 908,-195.74 "/>
<text text-anchor="middle" x="697" y="-186.54" font-family="Microsoft JhengHei" font-size="14.00">/workspaces/df&#45;data&#45;ingestion/data/in/assets_20241226.csv</text>
<text text-anchor="middle" x="697" y="-171.54" font-family="Microsoft JhengHei" font-size="14.00">feed</text>
</g>
<!-- workflow_1 -->
<g id="node5" class="node">
<title>workflow_1</title>
<ellipse fill="#cccccc" stroke="black" cx="697" cy="-100.87" rx="67.35" ry="26.74"/>
<text text-anchor="middle" x="697" y="-104.67" font-family="Microsoft JhengHei" font-size="14.00">workflow_1</text>
<text text-anchor="middle" x="697" y="-89.67" font-family="Microsoft JhengHei" font-size="14.00">process</text>
</g>
<!-- /workspaces/df&#45;data&#45;ingestion/data/in/assets_20241226.csv&#45;&gt;workflow_1 -->
<g id="edge3" class="edge">
<title>/workspaces/df&#45;data&#45;ingestion/data/in/assets_20241226.csv&#45;&gt;workflow_1</title>
<path fill="none" stroke="black" d="M697,-163.62C697,-156.01 697,-146.88 697,-138"/>
<polygon fill="black" stroke="black" points="700.5,-137.8 697,-127.8 693.5,-137.8 700.5,-137.8"/>
</g>
<!-- dl_asset_mgmt.tasset -->
<g id="node6" class="node">
<title>dl_asset_mgmt.tasset</title>
<polygon fill="lightseagreen" stroke="black" points="780.5,-38 613.5,-38 613.5,0 780.5,0 780.5,-38"/>
<text text-anchor="middle" x="697" y="-22.8" font-family="Microsoft JhengHei" font-size="14.00">dl_asset_mgmt.tasset</text>
<text text-anchor="middle" x="697" y="-7.8" font-family="Microsoft JhengHei" font-size="14.00">dataset</text>
</g>
<!-- workflow_1&#45;&gt;dl_asset_mgmt.tasset -->
<g id="edge4" class="edge">
<title>workflow_1&#45;&gt;dl_asset_mgmt.tasset</title>
<path fill="none" stroke="black" d="M697,-73.72C697,-65.53 697,-56.46 697,-48.14"/>
<polygon fill="black" stroke="black" points="700.5,-48.12 697,-38.12 693.5,-48.12 700.5,-48.12"/>
</g>
<!-- /workspaces/df&#45;data&#45;ingestion/data/in/acct_positions_20241226.csv -->
<g id="node7" class="node">
<title>/workspaces/df&#45;data&#45;ingestion/data/in/acct_positions_20241226.csv</title>
<polygon fill="snow" stroke="black" points="1413.5,-201.74 932.5,-201.74 932.5,-163.74 1419.5,-163.74 1419.5,-195.74 1413.5,-201.74"/>
<polyline fill="none" stroke="black" points="1413.5,-201.74 1413.5,-195.74 "/>
<polyline fill="none" stroke="black" points="1419.5,-195.74 1413.5,-195.74 "/>
<text text-anchor="middle" x="1176" y="-186.54" font-family="Microsoft JhengHei" font-size="14.00">/workspaces/df&#45;data&#45;ingestion/data/in/acct_positions_20241226.csv</text>
<text text-anchor="middle" x="1176" y="-171.54" font-family="Microsoft JhengHei" font-size="14.00">feed</text>
</g>
<!-- workflow_2 -->
<g id="node8" class="node">
<title>workflow_2</title>
<ellipse fill="#cccccc" stroke="black" cx="1176" cy="-100.87" rx="67.35" ry="26.74"/>
<text text-anchor="middle" x="1176" y="-104.67" font-family="Microsoft JhengHei" font-size="14.00">workflow_2</text>
<text text-anchor="middle" x="1176" y="-89.67" font-family="Microsoft JhengHei" font-size="14.00">process</text>
</g>
<!-- /workspaces/df&#45;data&#45;ingestion/data/in/acct_positions_20241226.csv&#45;&gt;workflow_2 -->
<g id="edge5" class="edge">
<title>/workspaces/df&#45;data&#45;ingestion/data/in/acct_positions_20241226.csv&#45;&gt;workflow_2</title>
<path fill="none" stroke="black" d="M1176,-163.62C1176,-156.01 1176,-146.88 1176,-138"/>
<polygon fill="black" stroke="black" points="1179.5,-137.8 1176,-127.8 1172.5,-137.8 1179.5,-137.8"/>
</g>
<!-- dl_asset_mgmt.tacct_pos -->
<g id="node9" class="node">
<title>dl_asset_mgmt.tacct_pos</title>
<polygon fill="lightseagreen" stroke="black" points="1271.5,-38 1080.5,-38 1080.5,0 1271.5,0 1271.5,-38"/>
<text text-anchor="middle" x="1176" y="-22.8" font-family="Microsoft JhengHei" font-size="14.00">dl_asset_mgmt.tacct_pos</text>
<text text-anchor="middle" x="1176" y="-7.8" font-family="Microsoft JhengHei" font-size="14.00">dataset</text>
</g>
<!-- workflow_2&#45;&gt;dl_asset_mgmt.tacct_pos -->
<g id="edge6" class="edge">
<title>workflow_2&#45;&gt;dl_asset_mgmt.tacct_pos</title>
<path fill="none" stroke="black" d="M1176,-73.72C1176,-65.53 1176,-56.46 1176,-48.14"/>
<polygon fill="black" stroke="black" points="1179.5,-48.12 1176,-38.12 1172.5,-48.12 1179.5,-48.12"/>
</g>
</g>
</svg>
